<svg width="112" height="41" viewBox="0 0 112 41" fill="none" xmlns="http://www.w3.org/2000/svg">
<path d="M55.7842 12.4487L61.1102 12.1144C61.2264 12.9802 61.4614 13.6392 61.8153 14.0917C62.3933 14.8251 63.2171 15.1917 64.2868 15.1917C65.085 15.1917 65.7009 15.0047 66.1344 14.6306C66.3329 14.4752 66.4942 14.2774 66.6064 14.0517C66.7185 13.8259 66.7788 13.578 66.7827 13.3259C66.7794 13.0843 66.7233 12.8463 66.6183 12.6286C66.5133 12.4109 66.362 12.2188 66.1749 12.0658C65.7697 11.6958 64.8142 11.3453 63.3083 11.0144C60.853 10.4634 59.1019 9.73 58.0552 8.8143C57.5459 8.38767 57.1392 7.8518 56.8653 7.24647C56.5914 6.64114 56.4573 5.98189 56.473 5.31766C56.4769 4.37899 56.7589 3.46252 57.2834 2.68403C57.8824 1.80661 58.7285 1.12689 59.7144 0.731099C60.7949 0.257046 62.2805 0.0200195 64.1713 0.0200195C66.4862 0.0200195 68.2514 0.450854 69.4669 1.31252C70.6825 2.17419 71.4057 3.54368 71.6366 5.42098L66.3593 5.72891C66.2242 4.91856 65.9298 4.32566 65.476 3.9502C65.0222 3.57474 64.4009 3.38768 63.6122 3.38903C62.9619 3.38903 62.4716 3.52882 62.1434 3.80434C61.9884 3.92354 61.8631 4.07703 61.7774 4.25277C61.6916 4.42851 61.6477 4.62173 61.6491 4.81727C61.654 4.96901 61.693 5.11771 61.7631 5.25237C61.8333 5.38702 61.9328 5.50419 62.0543 5.5952C62.3177 5.83426 62.9437 6.0571 63.9323 6.26374C66.3795 6.79046 68.1353 7.32394 69.1995 7.86417C70.2638 8.4044 71.0336 9.07362 71.509 9.87181C71.9942 10.6815 72.2446 11.6102 72.2323 12.5541C72.2381 13.6969 71.9031 14.8156 71.27 15.7671C70.611 16.7592 69.6737 17.5344 68.5756 17.9955C67.4208 18.502 65.9662 18.7552 64.2118 18.7552C61.1312 18.7552 58.9973 18.1623 57.8101 16.9765C56.623 15.7907 55.9477 14.2814 55.7842 12.4487V12.4487ZM1.27022 18.4513V0.325925H10.6014C12.3314 0.325925 13.6537 0.473814 14.568 0.76959C15.4686 1.05726 16.2473 1.63769 16.7802 2.41864C17.3603 3.28546 17.6556 4.31158 17.625 5.35412C17.6485 6.26391 17.4245 7.16298 16.9768 7.95534C16.5471 8.68986 15.9388 9.30382 15.2082 9.74012C14.594 10.0789 13.9311 10.3208 13.2431 10.4573C13.7579 10.6089 14.2484 10.8333 14.6997 11.1238C15.0351 11.4026 15.3369 11.7194 15.5992 12.0678C15.8942 12.4142 16.1554 12.788 16.3791 13.1841L19.0897 18.4513H12.763L9.77278 12.9066C9.39327 12.1894 9.05562 11.7234 8.75985 11.5087C8.3568 11.2294 7.87664 11.0828 7.38631 11.0894H6.88794V18.4513H1.27022ZM6.88794 7.66564H9.25416C9.75492 7.62825 10.2513 7.54553 10.7371 7.41848C11.1001 7.34883 11.4239 7.14573 11.6447 6.84921C11.8781 6.54969 12.0025 6.17953 11.9972 5.79982C12.0124 5.54773 11.9702 5.29548 11.8737 5.0621C11.7772 4.82872 11.6289 4.62031 11.4401 4.45261C11.07 4.13928 10.3738 3.98261 9.3514 3.98261H6.88794V7.66564ZM0 33.9614L5.326 33.6291C5.44215 34.4949 5.67715 35.1539 6.031 35.6064C6.6023 36.3397 7.42818 36.7064 8.50864 36.7064C9.30683 36.7064 9.92269 36.5187 10.3562 36.1432C10.5548 35.9879 10.716 35.7901 10.8282 35.5644C10.9404 35.3386 11.0006 35.0906 11.0045 34.8386C11.0009 34.597 10.9447 34.3591 10.8397 34.1414C10.7348 33.9238 10.5836 33.7317 10.3967 33.5785C9.99157 33.2084 9.03604 32.8586 7.53014 32.5291C5.07479 31.9754 3.32377 31.242 2.27707 30.329C1.7678 29.9019 1.36115 29.3656 1.08726 28.76C0.813377 28.1543 0.679268 27.4948 0.694872 26.8303C0.699356 25.8918 0.981293 24.9755 1.50522 24.1967C2.10422 23.3193 2.95035 22.6396 3.93626 22.2438C5.01672 21.7697 6.50235 21.5327 8.39316 21.5327C10.7081 21.5327 12.4733 21.9635 13.6888 22.8252C14.9043 23.6869 15.6275 25.0563 15.8585 26.9336L10.5912 27.2436C10.4562 26.4333 10.1617 25.8397 9.70795 25.4629C9.25416 25.0861 8.63357 24.901 7.84618 24.9078C7.19655 24.9078 6.70697 25.0428 6.37743 25.313C6.22241 25.4322 6.09711 25.5856 6.01135 25.7614C5.92558 25.9371 5.88169 26.1303 5.88312 26.3259C5.88773 26.478 5.92655 26.6271 5.9967 26.7621C6.06684 26.8971 6.16651 27.0146 6.28829 27.1058C6.55165 27.3449 7.17764 27.5671 8.16627 27.7724C10.6135 28.2991 12.3693 28.8326 13.4335 29.3728C14.4978 29.913 15.2676 30.5822 15.743 31.3804C16.2279 32.1903 16.4783 33.1189 16.4662 34.0627C16.4723 35.2056 16.1373 36.3243 15.504 37.2757C14.845 38.2678 13.9077 39.0431 12.8096 39.5041C11.6548 40.0106 10.2002 40.2638 8.44584 40.2638C5.36517 40.2638 3.23126 39.6709 2.0441 38.4851C0.856941 37.2993 0.175575 35.7914 0 33.9614ZM33.0216 32.5412L37.9283 34.0242C37.6569 35.2689 37.126 36.4425 36.3704 37.4682C35.6818 38.3744 34.7761 39.0927 33.7367 39.5568C32.686 40.0255 31.3489 40.2598 29.7255 40.2598C27.7564 40.2598 26.1479 39.9741 24.8999 39.4029C23.652 38.8316 22.5715 37.8247 21.6585 36.3823C20.7509 34.9412 20.2978 33.097 20.2992 30.8496C20.2992 27.8541 21.096 25.5507 22.6897 23.9394C24.2834 22.3282 26.5388 21.5232 29.4561 21.5246C31.7399 21.5246 33.5342 21.9865 34.8388 22.9103C36.1435 23.8341 37.1132 25.2522 37.748 27.1646L32.8048 28.2646C32.6888 27.8335 32.5056 27.4233 32.2619 27.0491C31.9625 26.6334 31.5689 26.2946 31.1133 26.0605C30.641 25.8252 30.1194 25.7064 29.5918 25.7141C28.3236 25.7141 27.3519 26.2246 26.6766 27.2456C26.1634 28.0033 25.9075 29.1925 25.9088 30.8132C25.9088 32.8201 26.214 34.1964 26.8245 34.9419C27.435 35.6874 28.2919 36.0595 29.3953 36.0582C30.465 36.0582 31.2753 35.7576 31.8264 35.1566C32.3774 34.5556 32.7758 33.6838 33.0216 32.5412V32.5412ZM42.2413 21.8386H47.8388V28.1755H53.9569V21.8386H59.5787V39.9559H53.9569V32.6324H47.8388V39.962H42.2413V21.8386ZM63.0632 30.9084C63.0632 27.9533 63.887 25.6506 65.5347 24.0002C67.1824 22.3498 69.4784 21.5259 72.4227 21.5286C75.4372 21.5286 77.7602 22.339 79.3917 23.9597C81.0232 25.5804 81.8409 27.8473 81.845 30.7605C81.845 32.8796 81.4884 34.6164 80.7753 35.971C80.0814 37.3078 79.0061 38.4085 77.6859 39.1334C76.3353 39.887 74.6565 40.2638 72.6496 40.2638C70.6075 40.2638 68.9193 39.9384 67.5849 39.2874C66.214 38.608 65.0795 37.5314 64.3294 36.1979C63.4839 34.7906 63.0618 33.0275 63.0632 30.9084V30.9084ZM68.6607 30.9347C68.6607 32.7648 68.9983 34.0789 69.6736 34.8771C70.3489 35.6753 71.274 36.0744 72.449 36.0744C73.6524 36.0744 74.5836 35.6834 75.2427 34.9014C75.9018 34.1194 76.2313 32.7148 76.2313 30.6876C76.2313 28.9818 75.8869 27.7352 75.1981 26.9478C74.5093 26.1604 73.5761 25.7674 72.3984 25.7688C71.8863 25.7504 71.3767 25.8479 70.9077 26.0542C70.4386 26.2605 70.0223 26.5701 69.6898 26.96C69.005 27.7703 68.662 29.0952 68.6607 30.9347V30.9347Z" fill="#FFFEFD"/>
<path d="M79.4707 30.9083C79.4707 27.9533 80.2946 25.6505 81.9423 24.0001C83.59 22.3497 85.8859 21.5259 88.8302 21.5286C91.8474 21.5286 94.1711 22.3389 95.8012 23.9596C97.4314 25.5803 98.2464 27.8479 98.2464 30.7625C98.2464 32.8815 97.8906 34.6184 97.1788 35.973C96.4843 37.3094 95.4092 38.4098 94.0894 39.1354C92.7388 39.889 91.06 40.2658 89.053 40.2658C87.0096 40.2658 85.3214 39.9403 83.9884 39.2893C82.6173 38.6095 81.4823 37.533 80.7308 36.1999C79.8907 34.7912 79.4707 33.0274 79.4707 30.9083V30.9083ZM85.0702 30.9347C85.0702 32.7647 85.4078 34.0788 86.0831 34.877C86.7584 35.6752 87.6849 36.075 88.8626 36.0763C90.066 36.0763 90.9972 35.6853 91.6563 34.9033C92.3154 34.1214 92.6449 32.7168 92.6449 30.6895C92.6449 28.9838 92.3012 27.7372 91.6137 26.9498C90.9263 26.1624 89.993 25.7694 88.814 25.7707C88.3011 25.751 87.7903 25.8477 87.3202 26.0537C86.85 26.2597 86.4326 26.5695 86.0993 26.9599C85.4119 27.7703 85.0688 29.0952 85.0702 30.9347V30.9347Z" fill="#FFFEFD"/>
<path d="M97.663 21.8386H103.262V35.495H112V39.9519H97.663V21.8386Z" fill="#FFFEFD"/>
</svg>
